<?xml version="1.0" encoding="iso-8859-1"?>
<!-- Generator: Adobe Illustrator 19.0.0, SVG Export Plug-In . SVG Version: 6.00 Build 0)  -->
<svg version="1.1" id="Capa_1" xmlns="http://www.w3.org/2000/svg" xmlns:xlink="http://www.w3.org/1999/xlink" x="0px" y="0px"
	 viewBox="0 0 480.064 480.064" style="enable-background:new 0 0 480.064 480.064;" xml:space="preserve">
<g>
	<path style="fill:#78B9EB;" d="M64.032,176.032l-56-56v352l176-176L64.032,176.032z"/>
	<path style="fill:#78B9EB;" d="M296.032,296.032l176,176v-352l-56,56L296.032,296.032z"/>
</g>
<g>
	<path style="fill:#1B75BC;" d="M64.032,120.032h-56l56,56V120.032z"/>
	<path style="fill:#1B75BC;" d="M416.032,176.032l56-56h-56V176.032z"/>
</g>
<path style="fill:#78B9EB;" d="M240.032,240.032l-56,56l-176,176h464l-176-176L240.032,240.032z"/>
<path style="fill:#FFE26E;" d="M184.032,296.032l56-56l56,56l120-120v-168h-352v168L184.032,296.032z"/>
<g>
	<path style="fill:#231F20;" d="M480.032,120.032c0-0.128-0.048-0.248-0.056-0.376c-0.027-0.393-0.086-0.784-0.176-1.168
		c-0.067-0.391-0.163-0.776-0.288-1.152c-0.04-0.12-0.04-0.248-0.088-0.368c-0.104-0.24-0.272-0.424-0.392-0.648
		c-0.183-0.361-0.392-0.709-0.624-1.04c-0.245-0.305-0.512-0.591-0.8-0.856c-0.267-0.286-0.553-0.553-0.856-0.8
		c-0.33-0.235-0.677-0.444-1.04-0.624c-0.224-0.12-0.408-0.288-0.648-0.392s-0.248-0.048-0.368-0.088
		c-0.371-0.125-0.75-0.221-1.136-0.288c-0.397-0.09-0.801-0.149-1.208-0.176c-0.12,0-0.232-0.056-0.352-0.056h-47.968V8.032
		c0-4.418-3.582-8-8-8h-352c-4.418,0-8,3.582-8,8v104h-48c-0.12,0-0.232,0.048-0.352,0.056c-0.412,0.028-0.821,0.087-1.224,0.176
		c-0.38,0.067-0.755,0.163-1.12,0.288c-0.12,0-0.248,0-0.368,0.088s-0.424,0.272-0.648,0.392c-0.363,0.18-0.71,0.389-1.04,0.624
		c-0.303,0.247-0.589,0.514-0.856,0.8c-0.288,0.265-0.555,0.551-0.8,0.856c-0.232,0.331-0.441,0.679-0.624,1.04
		c-0.12,0.224-0.288,0.408-0.392,0.648c-0.048,0.12-0.048,0.248-0.088,0.368c-0.125,0.376-0.221,0.761-0.288,1.152
		c-0.09,0.384-0.149,0.775-0.176,1.168c0,0.128-0.056,0.248-0.056,0.376v351.968c0,0.128,0.048,0.248,0.056,0.376
		c0.027,0.393,0.086,0.784,0.176,1.168c0.067,0.391,0.163,0.776,0.288,1.152c0,0.12,0,0.248,0.088,0.368S0.88,475.52,1,475.744
		c0.183,0.361,0.392,0.709,0.624,1.04c0.245,0.305,0.512,0.591,0.8,0.856c0.267,0.286,0.553,0.553,0.856,0.8
		c0.33,0.235,0.677,0.444,1.04,0.624c0.224,0.12,0.408,0.288,0.648,0.392c0.096,0.04,0.2,0,0.296,0.056
		c0.884,0.338,1.822,0.514,2.768,0.52h464c0.948-0.016,1.886-0.203,2.768-0.552c0.096,0,0.2,0,0.296-0.056
		c0.24-0.104,0.424-0.272,0.648-0.392c0.363-0.18,0.71-0.389,1.04-0.624c0.303-0.247,0.589-0.514,0.856-0.8
		c0.288-0.265,0.555-0.551,0.8-0.856c0.232-0.331,0.441-0.679,0.624-1.04c0.12-0.224,0.288-0.408,0.392-0.648
		s0.048-0.248,0.088-0.368c0.125-0.376,0.221-0.761,0.288-1.152c0.09-0.384,0.149-0.775,0.176-1.168
		c0-0.128,0.056-0.248,0.056-0.376L480.032,120.032z M464.032,452.72L307.344,296.032l156.688-156.688V452.72z M452.72,128.032
		l-28.688,28.688v-28.688H452.72z M72.032,16.032h336V172.72l-112,112l-50.344-50.344c-3.124-3.123-8.188-3.123-11.312,0
		l-50.344,50.344l-112-112V16.032z M16.032,139.344L172.72,296.032L16.032,452.72V139.344z M56.032,128.032v28.688l-28.688-28.688
		H56.032z M27.344,464.032l212.688-212.688L452.72,464.032H27.344z"/>
	<path style="fill:#231F20;" d="M112.032,96.032h256c4.418,0,8-3.582,8-8s-3.582-8-8-8h-256c-4.418,0-8,3.582-8,8
		S107.614,96.032,112.032,96.032z"/>
	<path style="fill:#231F20;" d="M112.032,128.032h256c4.418,0,8-3.582,8-8s-3.582-8-8-8h-256c-4.418,0-8,3.582-8,8
		S107.614,128.032,112.032,128.032z"/>
	<path style="fill:#231F20;" d="M112.032,160.032h256c4.418,0,8-3.582,8-8s-3.582-8-8-8h-256c-4.418,0-8,3.582-8,8
		S107.614,160.032,112.032,160.032z"/>
</g>
<g>
</g>
<g>
</g>
<g>
</g>
<g>
</g>
<g>
</g>
<g>
</g>
<g>
</g>
<g>
</g>
<g>
</g>
<g>
</g>
<g>
</g>
<g>
</g>
<g>
</g>
<g>
</g>
<g>
</g>
</svg>
